<svg width="1065" height="810" viewBox="0 0 1065 810" fill="none" xmlns="http://www.w3.org/2000/svg">
<g opacity="0.9">
<path d="M810.884 222.886C702.485 377.487 489.241 413.917 335.528 305.518C181.815 196.23 145.386 -16.1249 253.785 -170.727C362.183 -324.44 575.427 -360.869 729.14 -252.47C882.853 -144.071 919.282 69.1724 810.884 222.886Z" stroke="white" stroke-miterlimit="10"/>
<path d="M820.667 269.088C702.495 428.133 476.812 461.008 317.768 342.835C158.723 224.662 125.848 -1.02021 244.021 -160.953C362.193 -319.997 587.876 -352.872 746.921 -234.7C905.965 -115.639 938.84 110.044 820.667 269.088Z" stroke="white" stroke-miterlimit="10"/>
<path d="M830.447 314.403C701.613 479.667 464.379 508.988 300.004 380.153C135.628 252.207 106.307 14.0846 234.254 -150.291C363.088 -315.555 600.322 -344.876 764.697 -216.041C929.073 -87.2061 959.282 150.028 830.447 314.403Z" stroke="white" stroke-miterlimit="10"/>
<path d="M840.22 360.605C701.611 530.311 451.938 556.078 282.232 418.359C111.637 279.75 86.7586 29.1889 224.478 -140.518C363.087 -310.224 612.76 -335.991 782.466 -198.271C953.061 -59.6626 978.828 190.899 840.22 360.605Z" stroke="white" stroke-miterlimit="10"/>
<path d="M849.973 406.808C701.591 581.846 439.479 604.058 264.441 455.676C88.5154 307.294 67.1909 45.1824 214.684 -130.744C363.067 -305.781 625.179 -327.994 800.216 -179.612C976.142 -31.2299 998.355 230.882 849.973 406.808Z" stroke="white" stroke-miterlimit="10"/>
<path d="M859.758 452.123C701.602 633.38 427.051 651.15 246.682 492.994C65.425 334.839 47.6548 60.2873 204.922 -120.081C363.078 -301.338 637.629 -319.997 818.886 -161.842C999.254 -3.68587 1017.91 271.754 859.758 452.123Z" stroke="white" stroke-miterlimit="10"/>
<path d="M869.521 498.325C701.592 684.025 414.601 699.13 228.013 531.201C42.3135 363.271 28.0974 75.3921 195.138 -110.308C363.068 -296.896 650.058 -311.112 836.646 -143.182C1022.35 24.7469 1037.45 311.737 869.521 498.325Z" stroke="white" stroke-miterlimit="10"/>
<path d="M879.28 543.64C700.689 735.559 402.147 746.221 210.228 568.518C19.1974 390.815 7.64685 91.3856 186.238 -100.534C363.941 -291.564 662.482 -303.115 854.402 -125.412C1045.43 53.1795 1056.98 352.609 879.28 543.64Z" stroke="white" stroke-miterlimit="10"/>
<path d="M888.203 589.842C700.726 786.204 389.746 794.201 192.495 605.835C-3.86647 418.359 -11.863 106.49 176.502 -90.7605C363.979 -287.122 675.848 -294.23 872.21 -106.754C1068.57 80.7231 1076.57 392.592 888.203 589.842Z" stroke="white" stroke-miterlimit="10"/>
<path d="M897.971 635.157C700.721 837.739 376.413 841.293 174.72 644.042C-26.9734 445.903 -31.4159 121.595 166.723 -80.0976C363.973 -282.679 688.281 -286.233 889.974 -88.9828C1092.56 109.156 1096.11 433.464 897.971 635.157Z" stroke="white" stroke-miterlimit="10"/>
<path d="M907.73 681.359C700.706 889.272 363.958 889.272 156.934 681.359C-50.9781 473.446 -50.9781 137.588 156.934 -70.3249C363.958 -278.237 700.706 -278.237 907.73 -70.3249C1115.64 137.588 1115.64 473.446 907.73 681.359Z" stroke="white" stroke-miterlimit="10"/>
</g>
</svg>
